<?xml version="1.0" standalone="no"?>
<!DOCTYPE svg PUBLIC "-//W3C//DTD SVG 20010904//EN"
 "http://www.w3.org/TR/2001/REC-SVG-20010904/DTD/svg10.dtd">
<svg version="1.0" xmlns="http://www.w3.org/2000/svg"
 width="5315.000000pt" height="5315.000000pt" viewBox="0 0 5315.000000 5315.000000"
 preserveAspectRatio="xMidYMid meet">

<g transform="translate(0.000000,5315.000000) scale(0.100000,-0.100000)"
fill="#000000" stroke="none">
<path d="M24725 50029 c-77 -3 -241 -7 -365 -8 -124 -1 -301 -8 -395 -16 -93
-9 -276 -20 -405 -25 -129 -5 -289 -16 -355 -24 -66 -9 -217 -22 -335 -31
-576 -42 -900 -89 -1345 -196 -88 -21 -257 -52 -375 -69 -330 -47 -438 -71
-595 -135 -101 -40 -253 -78 -405 -100 -217 -31 -340 -67 -443 -129 -91 -55
-171 -82 -342 -116 -191 -38 -228 -52 -348 -124 -102 -62 -158 -84 -309 -122
-134 -34 -178 -52 -311 -129 -79 -45 -154 -78 -252 -111 -151 -50 -224 -83
-325 -148 -74 -47 -102 -62 -215 -107 -110 -43 -167 -73 -252 -131 -39 -27
-124 -71 -189 -99 -133 -58 -140 -61 -249 -144 -44 -33 -137 -89 -207 -125
-70 -36 -165 -92 -210 -126 -46 -33 -123 -83 -173 -112 -49 -28 -117 -73 -150
-101 -33 -27 -97 -74 -143 -103 -114 -73 -389 -277 -492 -363 -47 -40 -121
-98 -165 -130 -116 -85 -276 -217 -381 -315 -50 -47 -171 -159 -269 -250 -99
-91 -227 -213 -285 -271 -58 -58 -139 -133 -182 -168 -42 -34 -104 -96 -139
-137 -34 -41 -99 -109 -144 -152 -45 -42 -114 -120 -152 -172 -39 -52 -108
-131 -153 -175 -52 -51 -100 -110 -133 -165 -28 -47 -89 -125 -137 -175 -82
-86 -140 -156 -140 -170 0 -20 -101 -158 -168 -229 -76 -80 -106 -123 -185
-266 -20 -36 -66 -99 -102 -140 -63 -72 -104 -132 -194 -287 -23 -40 -73 -109
-112 -155 -106 -125 -135 -172 -189 -308 -63 -154 -82 -188 -164 -275 -74 -78
-115 -155 -140 -260 -36 -147 -46 -170 -97 -231 -74 -87 -92 -127 -93 -206 -1
-57 2 -70 23 -92 62 -66 148 -2 196 144 32 98 56 124 154 175 116 60 159 107
223 243 46 98 57 114 148 202 54 52 130 140 171 195 108 149 372 435 594 645
44 41 125 122 180 179 55 57 125 123 155 146 30 24 87 75 125 115 39 39 106
101 150 138 44 36 110 94 147 129 63 58 304 253 393 318 22 16 92 71 155 121
63 50 141 108 172 128 54 34 146 105 193 149 11 10 73 54 137 97 64 43 141 99
171 123 30 24 90 63 133 87 43 24 122 73 174 110 53 37 145 92 206 124 60 31
155 91 209 132 63 48 151 101 237 144 76 38 173 93 216 123 42 30 126 77 186
103 60 26 149 74 197 106 115 75 147 91 309 152 77 30 167 73 210 100 113 74
130 82 236 116 213 68 252 84 339 140 111 71 129 79 322 135 120 35 186 62
287 114 134 70 165 82 366 132 122 30 191 56 307 113 95 47 194 79 323 106
170 34 362 87 467 129 159 62 262 88 548 136 308 52 295 49 510 120 183 61
288 81 500 95 370 25 478 40 715 100 281 71 481 99 880 125 739 47 2235 67
2535 33 83 -9 195 -20 250 -23 275 -17 628 -64 790 -105 60 -15 144 -31 185
-35 41 -3 125 -15 185 -25 106 -18 238 -34 545 -64 139 -14 220 -33 264 -62
12 -7 32 -33 45 -58 44 -80 11 -112 -174 -170 -212 -68 -373 -96 -561 -96 -56
0 -215 -34 -429 -92 -44 -12 -179 -61 -300 -108 -215 -86 -276 -104 -520 -156
-165 -35 -231 -58 -367 -126 -91 -46 -141 -64 -230 -83 -292 -64 -297 -66
-428 -130 -141 -70 -179 -83 -350 -121 -118 -27 -204 -62 -320 -134 -79 -48
-139 -72 -284 -111 -123 -33 -187 -61 -320 -137 -55 -32 -143 -69 -230 -98
-149 -49 -204 -74 -289 -128 -87 -56 -146 -82 -294 -131 -114 -38 -161 -60
-240 -111 -65 -42 -146 -82 -242 -120 -105 -42 -172 -75 -249 -127 -58 -38
-150 -89 -206 -112 -137 -56 -156 -67 -266 -144 -52 -37 -142 -89 -200 -115
-58 -27 -157 -84 -221 -127 -64 -42 -157 -98 -207 -123 -50 -25 -138 -76 -194
-114 -57 -38 -143 -90 -192 -116 -49 -26 -116 -66 -149 -89 -32 -23 -87 -61
-121 -85 -33 -24 -104 -68 -158 -98 -53 -30 -136 -85 -185 -122 -48 -37 -128
-94 -178 -126 -49 -33 -121 -85 -160 -116 -38 -31 -106 -81 -150 -110 -44 -30
-109 -78 -144 -108 -36 -30 -108 -83 -160 -118 -53 -34 -123 -87 -157 -116
-33 -30 -99 -79 -145 -110 -47 -31 -123 -92 -170 -135 -46 -43 -118 -106 -159
-140 -41 -33 -95 -82 -120 -108 -25 -26 -79 -74 -120 -108 -41 -33 -111 -95
-155 -137 -44 -42 -107 -96 -140 -120 -33 -24 -100 -82 -150 -130 -49 -48
-118 -108 -153 -134 -35 -27 -92 -83 -127 -125 -35 -43 -103 -113 -151 -157
-48 -43 -118 -118 -155 -165 -38 -47 -99 -115 -138 -150 -38 -35 -105 -110
-150 -165 -44 -56 -115 -132 -156 -170 -42 -38 -110 -112 -150 -165 -41 -53
-102 -121 -137 -152 -66 -58 -88 -85 -168 -207 -27 -41 -89 -116 -138 -167
-60 -63 -108 -126 -152 -200 -35 -59 -83 -128 -106 -153 -93 -100 -126 -146
-212 -296 -23 -39 -67 -100 -99 -135 -75 -82 -89 -103 -152 -223 -72 -135 -87
-158 -168 -252 -80 -92 -104 -138 -172 -331 -27 -76 -66 -181 -87 -233 -31
-80 -37 -107 -38 -175 0 -64 4 -89 22 -127 30 -60 101 -129 171 -167 72 -38
349 -130 561 -187 91 -24 198 -52 237 -63 171 -47 329 -35 366 28 35 60 13
171 -57 283 -15 23 -43 68 -62 98 -30 48 -34 62 -34 122 0 64 4 75 66 194 36
70 72 152 80 183 20 75 43 108 165 231 58 58 130 143 162 190 31 47 85 114
118 150 34 36 94 108 134 160 40 52 112 133 160 180 48 47 113 120 146 162 32
42 91 105 131 140 76 67 176 163 245 238 91 99 282 281 353 337 41 33 102 90
135 127 33 37 98 98 145 135 47 37 121 101 165 142 44 41 109 99 145 128 36
29 86 72 111 96 25 24 87 74 137 112 50 38 125 100 166 137 41 37 115 99 163
137 48 38 117 95 153 125 36 31 104 82 152 114 48 33 115 81 150 108 35 27
101 74 148 105 47 31 114 81 150 111 36 31 96 75 134 98 37 24 105 71 150 105
44 34 119 86 165 115 46 29 129 87 185 128 124 91 149 108 206 139 88 48 196
116 265 167 39 28 118 76 175 105 58 29 125 67 150 84 120 83 172 115 250 155
47 23 141 80 210 125 69 46 181 108 249 139 110 49 183 90 217 121 16 15 146
79 262 129 57 25 142 70 190 100 86 54 131 75 287 136 44 17 119 58 166 90
120 81 156 98 304 141 168 48 168 48 280 118 111 71 145 85 320 141 89 28 167
61 246 105 79 44 158 78 245 106 239 76 299 96 444 153 80 32 209 80 288 106
79 27 178 68 220 91 190 105 226 118 464 159 64 11 152 33 196 48 77 28 206
97 248 134 35 31 130 58 278 79 222 31 249 37 389 91 224 86 342 117 632 168
179 32 325 65 570 131 154 41 268 64 380 79 472 61 560 74 675 97 69 14 181
38 250 55 269 63 426 82 1030 123 124 8 292 26 375 40 172 29 209 30 325 11
230 -38 388 -92 511 -175 82 -54 174 -99 276 -135 119 -41 157 -59 261 -127
42 -28 113 -68 157 -89 44 -20 109 -51 145 -68 36 -17 97 -54 135 -82 39 -28
126 -80 195 -115 69 -35 165 -93 213 -128 49 -35 148 -93 220 -130 73 -36 173
-97 224 -135 50 -38 131 -92 180 -121 49 -28 125 -80 168 -115 44 -34 121 -88
170 -119 50 -30 99 -64 110 -74 36 -33 149 -118 220 -165 39 -26 87 -63 108
-83 21 -19 86 -70 145 -112 59 -43 125 -95 147 -116 22 -21 86 -74 142 -118
143 -111 174 -173 119 -232 -57 -61 -101 -66 -511 -55 -453 12 -899 -27 -1230
-107 -352 -84 -467 -109 -746 -155 -190 -31 -320 -65 -459 -120 -142 -55 -263
-92 -383 -116 -169 -33 -263 -65 -426 -140 -76 -36 -184 -74 -208 -74 -25 0
-247 -58 -304 -79 -30 -12 -85 -41 -122 -66 -99 -66 -148 -88 -297 -135 -162
-52 -215 -74 -312 -132 -69 -42 -117 -63 -286 -122 -89 -32 -172 -72 -266
-131 -39 -24 -102 -55 -141 -70 -143 -54 -232 -97 -280 -133 -28 -21 -72 -55
-98 -75 -67 -51 -139 -70 -246 -65 -99 5 -150 26 -199 82 -57 65 -62 113 -47
396 9 165 -3 222 -75 355 -97 178 -175 249 -270 247 -99 -2 -265 -98 -439
-255 -30 -27 -95 -76 -145 -109 -50 -33 -124 -89 -164 -124 -40 -35 -103 -81
-140 -103 -37 -21 -96 -62 -132 -90 -36 -28 -114 -85 -175 -127 -60 -42 -141
-103 -180 -134 -38 -31 -106 -80 -150 -110 -44 -29 -131 -92 -193 -139 -63
-47 -167 -122 -231 -166 -65 -44 -153 -108 -197 -143 -93 -73 -235 -174 -429
-306 -77 -52 -165 -117 -195 -145 -30 -28 -102 -83 -160 -123 -58 -40 -130
-93 -161 -118 -30 -25 -107 -80 -170 -122 -63 -42 -161 -116 -219 -165 -58
-48 -137 -109 -175 -135 -39 -26 -99 -70 -135 -98 -278 -217 -305 -233 -404
-234 -62 -1 -70 1 -87 24 -18 24 -18 28 -4 84 27 104 82 193 183 296 51 52
118 132 148 177 32 48 87 111 131 150 41 38 109 112 150 166 41 54 100 122
131 150 31 29 115 109 187 179 259 252 391 375 445 415 31 22 85 73 120 113
35 40 100 99 143 132 44 33 109 91 146 130 36 39 109 102 161 141 52 39 122
94 155 122 33 29 139 105 235 170 96 65 201 139 233 164 32 25 79 63 105 84
26 20 97 63 157 93 99 51 120 67 205 155 75 77 113 108 180 144 99 54 140 93
140 134 0 47 -31 65 -121 70 -93 4 -138 -9 -250 -74 -45 -26 -138 -65 -216
-90 -88 -29 -165 -63 -217 -94 -125 -75 -217 -118 -344 -163 -138 -48 -192
-74 -287 -138 -79 -53 -171 -101 -230 -120 -81 -26 -192 -85 -270 -143 -45
-34 -142 -90 -220 -128 -77 -37 -176 -93 -219 -124 -43 -31 -125 -81 -182
-110 -57 -30 -143 -83 -191 -118 -48 -35 -123 -84 -167 -107 -43 -24 -104 -63
-135 -87 -31 -24 -103 -78 -161 -120 -94 -69 -247 -188 -260 -203 -3 -3 -48
-41 -100 -85 -52 -44 -97 -82 -100 -85 -3 -3 -43 -39 -90 -80 -140 -121 -288
-260 -374 -348 -45 -46 -135 -139 -202 -205 -87 -88 -132 -142 -159 -192 -49
-89 -81 -131 -170 -225 -39 -41 -100 -117 -135 -169 -35 -52 -95 -129 -135
-172 -39 -42 -98 -114 -130 -160 -32 -46 -106 -133 -165 -194 -59 -60 -133
-144 -164 -187 -30 -42 -87 -105 -126 -140 -39 -34 -107 -108 -152 -163 -46
-55 -107 -122 -137 -150 -31 -27 -107 -102 -171 -165 -153 -154 -286 -269
-390 -337 -47 -31 -116 -82 -155 -113 -38 -32 -124 -88 -190 -125 -66 -37
-142 -84 -170 -104 -83 -61 -123 -81 -276 -137 -81 -29 -196 -74 -255 -99
-133 -57 -239 -85 -499 -130 -267 -46 -339 -68 -385 -117 -24 -26 -25 -50 -4
-83 40 -61 174 -104 424 -134 325 -40 523 -50 905 -46 361 3 439 9 660 50 44
8 188 26 320 39 132 14 326 37 430 52 270 38 356 36 525 -9 194 -52 244 -69
363 -125 133 -64 177 -79 285 -97 156 -26 568 -60 847 -71 360 -13 1118 34
1372 85 57 12 149 43 245 84 122 52 190 74 337 107 207 47 271 67 345 108 28
16 76 42 106 59 62 34 125 55 318 107 103 28 162 51 255 100 126 66 236 106
347 126 99 18 259 74 386 135 127 61 186 79 404 125 182 38 226 52 326 106
114 62 175 80 374 114 223 38 299 60 435 125 143 69 214 89 420 120 202 30
335 61 468 109 148 54 270 81 522 116 127 18 307 45 400 60 339 56 712 121
810 140 138 27 257 38 512 50 742 33 1561 35 2170 4 348 -17 426 -26 588 -64
70 -17 202 -42 294 -55 147 -22 225 -36 521 -90 41 -8 127 -22 190 -30 190
-28 311 -58 475 -119 141 -53 303 -97 440 -121 200 -36 248 -53 392 -145 68
-43 115 -58 273 -91 153 -31 246 -63 325 -111 86 -54 132 -73 311 -132 105
-35 170 -64 249 -111 60 -35 151 -81 204 -101 234 -90 292 -122 361 -202 131
-152 204 -405 336 -1161 17 -102 24 -169 20 -199 -13 -97 -81 -151 -198 -160
-93 -6 -178 22 -308 103 -113 71 -183 97 -375 140 -168 37 -215 52 -333 101
-151 65 -248 91 -532 144 -260 49 -323 64 -500 116 -232 70 -382 98 -661 124
-121 11 -257 27 -302 36 -115 20 -319 51 -467 68 -69 9 -215 31 -325 51 -194
35 -235 40 -530 70 -203 21 -648 45 -890 49 -450 8 -1115 -25 -1314 -64 -120
-23 -201 -57 -201 -83 0 -10 108 -47 176 -61 40 -9 163 -24 275 -35 338 -34
416 -42 599 -61 96 -11 254 -24 350 -30 206 -13 411 -35 530 -56 47 -9 108
-19 135 -24 28 -5 163 -29 300 -55 138 -26 356 -64 485 -85 243 -40 352 -65
675 -155 105 -29 235 -60 290 -69 55 -9 127 -21 160 -27 98 -16 184 -47 292
-105 105 -57 182 -81 398 -124 107 -22 220 -55 240 -70 6 -5 55 -30 110 -58
105 -52 166 -74 330 -117 98 -26 184 -65 315 -140 36 -20 116 -57 177 -81 134
-52 199 -84 273 -134 30 -21 114 -67 185 -103 72 -36 163 -89 203 -119 131
-95 166 -118 252 -162 186 -97 238 -202 227 -461 -7 -147 -34 -539 -41 -600
-3 -22 -10 -107 -16 -190 -28 -418 -62 -607 -184 -1030 -14 -49 -35 -139 -46
-200 -12 -60 -29 -139 -39 -175 -10 -36 -25 -92 -31 -125 -7 -33 -28 -94 -47
-135 -28 -61 -34 -89 -37 -155 -3 -84 -10 -104 -79 -226 -47 -84 -80 -180
-107 -315 -11 -58 -27 -125 -35 -148 -8 -22 -15 -49 -15 -59 0 -19 -45 -105
-91 -175 -16 -24 -29 -45 -29 -48 0 -2 -11 -21 -23 -42 -34 -54 -72 -160 -107
-297 -38 -154 -91 -263 -173 -355 -7 -8 -28 -35 -47 -60 -18 -25 -46 -58 -61
-75 -19 -20 -36 -61 -54 -125 -19 -66 -42 -120 -78 -179 -94 -151 -107 -175
-172 -306 -53 -108 -78 -146 -149 -225 -47 -52 -96 -117 -109 -145 -14 -27
-41 -84 -61 -125 -22 -45 -67 -112 -115 -168 -57 -67 -95 -126 -138 -210 -43
-87 -72 -131 -114 -172 -67 -68 -184 -129 -261 -137 -48 -5 -57 -2 -86 21 -41
35 -49 68 -67 261 -9 88 -20 194 -25 235 -5 41 -16 154 -25 251 -8 96 -26 238
-40 315 -78 432 -97 512 -162 683 -24 64 -64 202 -88 306 -50 216 -75 292
-152 455 -57 120 -98 234 -128 360 -28 116 -65 186 -154 293 -97 117 -107 136
-156 290 -47 147 -78 195 -180 272 -44 34 -89 75 -100 92 -12 16 -29 68 -39
114 -31 142 -81 215 -166 240 -30 9 -46 9 -69 -1 -37 -15 -46 -49 -39 -154 6
-86 37 -155 102 -224 97 -104 110 -128 121 -232 26 -221 50 -294 157 -461 54
-82 67 -120 99 -284 17 -82 45 -211 64 -285 19 -74 46 -200 60 -280 24 -133
55 -275 105 -485 19 -80 48 -261 74 -470 28 -215 40 -724 27 -1062 -16 -405
-36 -564 -101 -803 -76 -276 -80 -302 -111 -589 -22 -211 -59 -281 -224 -426
-44 -38 -114 -102 -155 -142 -41 -40 -100 -91 -130 -114 -30 -23 -92 -73 -137
-111 -44 -38 -105 -88 -135 -110 -95 -71 -121 -92 -184 -151 -34 -32 -98 -84
-141 -117 -43 -32 -133 -106 -198 -165 -131 -117 -172 -145 -260 -175 -72 -25
-108 -25 -161 -1 -64 29 -86 84 -85 209 0 54 7 131 16 171 8 40 22 177 30 304
9 128 25 338 36 467 55 634 56 1950 1 2370 -11 85 -28 252 -37 370 -20 262
-41 465 -60 585 -8 50 -26 163 -40 251 -26 167 -50 250 -111 401 -34 85 -85
290 -99 403 -12 96 -53 285 -73 337 -10 27 -48 99 -84 159 -83 139 -96 169
-114 257 -32 156 -67 284 -90 327 -12 25 -50 76 -82 113 -67 76 -110 151 -142
247 -37 111 -69 164 -157 261 -70 79 -95 116 -150 226 -54 110 -79 147 -146
220 -44 49 -110 129 -147 178 -37 50 -107 128 -157 175 -49 47 -120 122 -156
166 -37 45 -99 108 -139 140 -40 32 -109 92 -153 135 -44 42 -114 100 -155
127 -41 27 -116 83 -167 124 -50 40 -131 96 -178 122 -48 27 -129 80 -180 118
-59 43 -149 95 -241 139 -82 39 -175 91 -208 116 -84 63 -116 77 -268 122
-176 52 -194 59 -323 124 -115 58 -162 73 -412 131 -84 19 -224 58 -310 86
-312 101 -623 149 -1343 210 -135 11 -294 25 -355 30 -272 24 -536 32 -820 27
-422 -8 -1016 -34 -1197 -51 -84 -8 -184 -17 -223 -20 -38 -4 -182 -15 -320
-26 -472 -38 -855 -93 -1150 -165 -121 -30 -254 -58 -295 -64 -474 -67 -603
-92 -740 -146 -228 -90 -277 -101 -526 -120 -107 -8 -245 -21 -307 -30 -61 -9
-158 -22 -215 -30 -162 -23 -241 -70 -211 -127 11 -21 79 -106 123 -153 30
-32 81 -116 99 -163 19 -47 22 -123 7 -151 -17 -33 -82 -74 -189 -118 -58 -24
-128 -58 -156 -75 -133 -84 -178 -108 -272 -150 -56 -25 -151 -78 -211 -117
-60 -39 -151 -89 -203 -111 -140 -59 -156 -69 -249 -138 -47 -35 -136 -88
-198 -118 -62 -30 -142 -77 -178 -104 -99 -75 -171 -122 -259 -169 -45 -23
-117 -69 -160 -102 -44 -33 -123 -84 -175 -114 -53 -29 -141 -87 -195 -127
-55 -41 -147 -104 -205 -140 -58 -37 -142 -95 -187 -130 -45 -35 -127 -96
-181 -136 -55 -39 -139 -107 -188 -150 -49 -43 -127 -105 -174 -138 -47 -32
-114 -85 -150 -118 -36 -32 -107 -90 -159 -129 -52 -38 -124 -97 -161 -131
-36 -33 -78 -71 -92 -83 -34 -28 -136 -93 -146 -93 -8 0 -121 -91 -172 -137
-14 -13 -40 -28 -59 -34 -30 -10 -36 -9 -48 7 -31 43 -4 110 88 211 33 37 69
83 80 102 100 185 402 518 754 831 61 54 144 131 185 171 41 39 107 97 145
128 39 30 106 90 150 131 44 42 114 100 155 130 41 30 102 78 135 108 33 29
105 84 160 122 55 38 141 102 190 144 50 41 148 108 218 148 70 40 163 99 205
132 42 32 133 86 201 120 93 45 143 78 200 129 77 69 114 90 254 148 77 31
103 47 227 142 39 29 84 53 119 63 212 59 251 74 296 118 37 35 45 49 45 79 0
19 -7 42 -15 51 -36 35 -151 46 -274 25 -82 -14 -117 -32 -206 -103 -74 -60
-105 -72 -262 -105 -106 -22 -172 -50 -274 -117 -40 -26 -109 -62 -153 -81
-140 -58 -186 -82 -285 -147 -53 -35 -148 -89 -211 -121 -63 -31 -153 -84
-199 -116 -45 -33 -124 -84 -173 -112 -50 -29 -144 -92 -210 -142 -66 -49
-137 -102 -158 -117 -66 -46 -410 -327 -510 -416 -258 -232 -640 -607 -760
-747 -37 -44 -103 -116 -145 -160 -78 -80 -128 -143 -197 -245 -21 -30 -72
-93 -114 -140 -42 -47 -101 -127 -131 -178 -30 -51 -92 -140 -138 -198 -59
-73 -103 -143 -147 -232 -36 -71 -97 -171 -139 -227 -85 -114 -101 -141 -158
-278 -49 -115 -52 -120 -157 -274 -73 -107 -85 -132 -124 -253 -52 -163 -66
-192 -140 -295 -31 -44 -64 -94 -73 -111 -18 -35 -48 -164 -73 -312 -20 -120
-46 -177 -94 -210 -66 -45 -175 -16 -316 84 -73 52 -105 87 -180 199 -31 47
-93 124 -138 172 -96 102 -93 97 -146 198 -57 107 -96 164 -151 222 -65 68
-96 121 -140 240 -44 119 -70 166 -125 225 -70 76 -101 122 -128 190 -14 36
-26 72 -26 80 0 37 -50 162 -130 328 -82 171 -159 384 -160 443 -1 21 -48 254
-109 542 -61 281 -86 561 -86 945 0 307 6 393 45 625 10 61 28 175 40 255 28
182 73 395 140 665 68 275 94 360 129 420 102 174 132 259 152 435 13 106 33
196 50 216 6 7 33 30 60 51 89 68 132 164 115 257 -9 49 -41 76 -89 76 -100 0
-156 -75 -173 -233 -10 -90 -23 -109 -106 -152 -130 -69 -163 -110 -259 -325
-34 -75 -62 -120 -153 -245 -31 -43 -78 -132 -126 -244 -42 -97 -102 -221
-134 -276 -75 -132 -109 -224 -140 -375 -36 -173 -48 -207 -112 -329 -66 -126
-92 -186 -110 -264 -16 -65 -40 -259 -49 -392 -3 -49 -12 -157 -20 -240 -34
-372 -25 -1105 19 -1490 49 -436 60 -478 202 -760 25 -48 51 -140 78 -275 32
-156 57 -230 99 -297 17 -29 55 -90 83 -135 29 -47 83 -163 124 -266 64 -160
83 -198 156 -301 45 -64 112 -178 149 -252 36 -74 83 -157 105 -184 105 -134
160 -211 208 -297 31 -53 84 -125 124 -168 38 -42 99 -124 136 -185 53 -88 88
-132 177 -220 61 -60 128 -137 150 -170 21 -33 88 -109 150 -170 61 -60 124
-127 141 -147 56 -70 569 -551 654 -613 19 -14 71 -53 115 -86 44 -33 113 -83
154 -112 41 -29 118 -84 171 -123 53 -40 144 -102 201 -139 57 -37 122 -82
144 -100 64 -52 143 -87 196 -88 84 -1 126 47 115 133 -7 54 -80 202 -155 314
-71 106 -104 180 -136 307 -15 57 -48 176 -75 264 -109 355 -130 474 -130 745
0 207 15 316 63 455 19 55 69 203 111 328 85 254 107 304 165 371 66 76 126
166 170 254 32 63 64 106 134 180 51 53 119 138 152 187 34 54 93 124 145 175
48 47 119 126 158 175 39 50 105 124 148 165 42 41 102 109 133 151 31 43 96
118 144 169 48 50 121 133 161 184 41 51 102 117 137 147 71 61 135 127 185
192 19 25 75 76 123 115 49 39 124 109 167 156 42 47 98 100 123 118 25 18 87
72 136 120 50 47 120 108 156 135 36 26 103 82 148 123 46 41 117 99 159 129
43 29 104 77 137 106 33 28 87 69 120 90 109 69 160 104 180 122 72 65 143
118 228 169 54 32 142 92 195 132 54 40 154 102 227 138 71 37 157 86 190 111
33 24 83 55 110 67 28 13 86 41 130 62 44 20 118 63 165 94 114 77 149 94 310
150 92 32 162 63 211 96 94 61 158 87 324 130 152 39 193 55 250 94 127 88
197 115 400 156 127 25 179 43 395 137 95 42 131 51 363 92 261 46 360 69 567
130 148 43 346 82 485 95 61 5 225 21 365 35 287 28 487 39 935 55 171 6 316
13 323 15 7 3 254 5 550 5 569 1 719 -7 1122 -60 373 -49 498 -76 800 -174
107 -35 224 -70 260 -79 274 -66 281 -69 440 -162 58 -34 136 -69 200 -89 144
-47 180 -63 296 -140 56 -36 153 -89 215 -117 74 -33 145 -74 204 -118 50 -37
130 -94 180 -126 49 -31 119 -86 155 -120 36 -34 101 -89 145 -122 44 -34 110
-92 147 -130 37 -38 104 -103 149 -143 50 -46 104 -107 140 -162 32 -48 92
-122 132 -165 102 -110 123 -140 171 -245 52 -116 84 -172 156 -269 70 -95 95
-153 126 -293 44 -201 57 -240 120 -362 35 -66 74 -154 88 -196 25 -78 49
-245 66 -463 27 -344 21 -1407 -10 -1730 -6 -55 -14 -185 -20 -290 -12 -246
-28 -332 -102 -545 -88 -256 -82 -229 -138 -685 -41 -326 -66 -429 -156 -625
-42 -93 -74 -202 -108 -365 -46 -221 -95 -371 -181 -560 -85 -185 -99 -226
-159 -453 -39 -146 -51 -173 -138 -315 -65 -106 -109 -209 -165 -387 -44 -143
-59 -173 -141 -280 -73 -96 -111 -172 -136 -275 -30 -125 -65 -201 -135 -296
-38 -50 -87 -128 -111 -172 -81 -155 -142 -222 -251 -278 -73 -36 -117 -50
-254 -79 -134 -29 -272 -74 -375 -122 -144 -67 -247 -98 -470 -138 -114 -21
-265 -61 -430 -115 -124 -40 -219 -64 -390 -100 -69 -14 -154 -32 -190 -40
-123 -27 -235 -17 -291 27 -24 19 -49 73 -49 105 1 51 42 115 110 171 128 107
148 128 206 227 38 65 84 124 130 170 83 82 118 128 163 210 42 76 90 142 164
225 41 46 76 103 122 197 45 92 85 156 133 215 95 115 134 179 180 295 46 116
66 148 155 257 79 96 107 150 141 278 37 135 54 170 128 268 94 123 118 179
168 384 32 131 51 178 128 332 76 150 114 264 156 474 48 237 57 271 95 373
76 202 91 255 126 452 20 110 43 232 51 270 50 228 84 452 84 558 0 143 -44
312 -92 352 -28 24 -65 23 -114 -3 -53 -28 -146 -186 -178 -302 -60 -218 -95
-302 -171 -420 -48 -75 -87 -156 -139 -290 -27 -72 -56 -121 -116 -203 -55
-72 -101 -151 -145 -242 -57 -121 -72 -144 -149 -224 -51 -54 -101 -120 -125
-163 -56 -102 -94 -154 -182 -250 -42 -46 -104 -123 -136 -173 -33 -49 -94
-125 -136 -167 -42 -43 -109 -122 -151 -175 -41 -54 -116 -136 -166 -182 -50
-46 -119 -120 -152 -165 -34 -44 -92 -110 -131 -146 -38 -35 -100 -99 -138
-142 -111 -126 -560 -554 -766 -730 -34 -29 -117 -102 -185 -162 -222 -196
-251 -222 -429 -372 -189 -159 -269 -224 -474 -379 -71 -54 -146 -112 -165
-129 -19 -18 -76 -59 -125 -93 -50 -34 -126 -94 -170 -133 -44 -39 -120 -98
-170 -132 -49 -34 -112 -80 -140 -103 -27 -23 -97 -72 -153 -109 -57 -37 -134
-91 -172 -121 -37 -30 -105 -76 -151 -104 -46 -27 -124 -81 -173 -119 -50 -39
-128 -90 -174 -114 -46 -23 -132 -79 -191 -124 -59 -44 -158 -111 -220 -149
-62 -37 -145 -93 -183 -123 -39 -30 -128 -86 -197 -124 -69 -39 -157 -94 -196
-122 -38 -29 -117 -77 -175 -108 -58 -30 -143 -83 -190 -117 -47 -34 -147 -92
-222 -130 -76 -38 -175 -96 -220 -129 -87 -63 -122 -82 -228 -128 -36 -15
-112 -56 -170 -90 -58 -34 -151 -85 -208 -114 -109 -56 -172 -112 -172 -154 0
-31 34 -72 79 -95 63 -33 148 -43 376 -47 121 -2 301 -8 400 -14 99 -6 223
-13 275 -15 52 -3 111 -8 130 -11 104 -13 314 -26 640 -39 201 -8 484 -19 630
-26 226 -10 316 -10 610 4 190 10 431 19 535 22 219 7 404 18 700 45 209 19
360 30 695 50 96 6 258 24 360 40 102 17 230 37 285 46 55 8 186 33 290 54
288 59 437 84 755 126 185 24 349 61 441 98 130 52 202 72 349 95 403 64 478
83 610 147 105 51 195 78 340 103 247 42 335 68 486 142 171 84 188 90 389
140 135 34 184 52 310 114 107 53 191 86 295 115 148 43 196 63 335 142 93 53
147 74 306 122 82 26 142 52 209 92 117 71 160 89 328 143 117 38 144 51 235
115 56 40 136 87 177 105 136 61 228 109 310 165 45 30 116 69 158 87 99 40
148 68 246 137 44 30 143 85 220 122 78 37 175 93 216 124 41 31 127 83 190
115 63 33 160 94 215 135 55 42 126 90 157 106 32 17 101 65 155 106 54 41
141 104 193 139 52 35 133 94 180 130 47 37 135 100 195 141 61 41 136 96 165
122 30 27 108 88 173 136 65 49 141 109 170 135 29 26 95 78 147 116 52 37
127 98 165 135 39 37 104 93 145 126 41 32 107 89 145 127 39 38 99 95 135
125 177 152 713 682 800 792 38 47 93 107 124 133 31 26 84 85 118 130 34 45
105 126 158 180 52 54 119 134 148 177 48 71 105 131 203 215 46 40 90 97 129
170 50 91 75 127 110 160 52 49 113 134 171 239 29 54 82 130 117 170 62 69
106 135 192 284 23 41 67 104 98 140 76 89 103 128 129 182 12 25 44 92 72
150 36 77 68 125 117 180 68 76 111 154 153 280 32 93 68 161 108 206 103 114
140 179 178 309 54 185 63 209 133 321 82 131 108 192 163 375 59 197 69 223
131 335 78 141 133 295 183 514 39 176 48 208 72 270 15 36 47 108 73 160 82
165 109 269 165 645 42 282 73 421 141 625 90 271 108 374 124 705 5 116 15
314 21 440 19 371 17 1470 -4 1930 -33 748 -47 841 -171 1189 -25 71 -54 170
-65 220 -18 81 -26 138 -62 400 -17 129 -63 323 -94 401 -17 43 -23 57 -78
180 -49 111 -81 211 -131 415 -54 217 -84 303 -179 500 -41 85 -91 207 -111
270 -20 63 -43 133 -52 155 -9 22 -23 58 -32 80 -9 22 -49 98 -91 169 -57 99
-86 163 -123 275 -53 158 -92 234 -169 326 -55 65 -86 125 -118 223 -32 101
-77 181 -154 278 -40 49 -77 101 -84 115 -6 13 -36 76 -66 139 -44 91 -73 136
-141 215 -60 71 -102 132 -142 210 -64 124 -124 213 -179 265 -42 39 -109 138
-150 220 -28 57 -74 119 -134 180 -58 61 -96 112 -146 200 -35 61 -78 114
-152 188 -56 57 -124 136 -150 175 -26 40 -86 110 -134 157 -47 47 -110 117
-140 155 -29 39 -106 124 -171 190 -64 66 -127 134 -139 150 -26 34 -139 149
-184 185 -17 14 -66 66 -110 115 -43 50 -97 105 -120 124 -22 19 -89 85 -150
146 -60 62 -139 137 -175 167 -36 30 -95 83 -130 117 -36 35 -96 88 -135 119
-38 31 -105 89 -148 129 -43 40 -108 94 -146 120 -37 26 -101 78 -142 115 -42
37 -106 91 -145 119 -38 29 -100 81 -139 116 -38 35 -101 85 -140 111 -38 26
-114 81 -167 124 -54 42 -132 97 -175 123 -43 25 -100 66 -128 91 -54 49 -111
89 -220 152 -38 22 -110 72 -159 110 -48 39 -129 91 -180 118 -109 56 -168 93
-261 163 -38 29 -108 73 -155 99 -47 25 -134 78 -195 117 -60 39 -153 91 -205
114 -52 23 -149 78 -215 121 -66 43 -174 102 -240 131 -130 57 -154 71 -230
135 -65 54 -87 65 -235 114 -126 41 -162 59 -307 147 -51 32 -119 62 -185 82
-151 47 -203 69 -298 125 -120 70 -210 109 -330 142 -70 19 -153 53 -250 103
-174 88 -184 92 -379 142 -118 30 -175 50 -240 86 -170 92 -197 104 -316 129
-237 51 -321 76 -437 130 -149 70 -241 98 -403 124 -261 42 -340 61 -484 116
-79 30 -187 66 -240 80 -83 21 -318 59 -491 78 -74 9 -490 80 -675 116 -82 15
-190 33 -240 39 -452 55 -741 80 -1210 106 -148 8 -315 19 -370 25 -190 19
-361 29 -580 35 -121 4 -348 13 -505 21 -298 14 -441 15 -675 3z m10240 -6704
c94 -4 226 -13 295 -21 69 -8 204 -19 300 -24 296 -18 494 -40 597 -66 53 -14
105 -30 115 -35 10 -5 106 -27 214 -49 229 -46 313 -70 388 -110 92 -48 121
-76 205 -198 44 -64 99 -137 122 -162 67 -74 113 -140 164 -238 33 -62 75
-121 128 -180 95 -104 128 -154 195 -292 28 -58 75 -136 106 -175 31 -38 65
-81 75 -95 11 -14 44 -72 72 -130 29 -58 64 -127 78 -155 13 -27 56 -88 95
-135 42 -51 85 -118 109 -170 22 -47 63 -134 92 -195 63 -133 75 -190 46 -227
-34 -42 -101 -62 -195 -55 -87 6 -131 21 -271 90 -135 67 -174 77 -515 137
-96 17 -224 46 -285 64 -210 65 -278 80 -565 126 -142 22 -251 36 -360 45 -81
7 -222 28 -335 50 -38 8 -169 19 -289 25 -121 6 -223 13 -227 16 -13 8 -272
33 -500 48 -453 31 -547 31 -1124 -4 -93 -5 -272 -14 -396 -19 -124 -6 -259
-17 -300 -25 -128 -26 -590 -84 -839 -106 -222 -19 -490 -65 -650 -110 -182
-52 -329 -87 -575 -135 -259 -52 -364 -78 -432 -110 -17 -8 -34 -15 -38 -15
-5 0 -48 -16 -98 -35 -49 -20 -183 -58 -297 -85 -215 -50 -287 -75 -355 -120
-79 -53 -149 -82 -283 -115 -205 -51 -251 -69 -404 -163 -157 -96 -266 -130
-384 -120 -79 7 -94 24 -94 112 0 113 43 185 165 272 22 15 90 77 150 136 61
59 137 128 170 154 33 25 76 60 95 78 19 17 71 63 115 101 75 65 119 100 379
301 55 42 138 101 185 132 47 30 118 81 156 112 98 79 121 94 215 140 45 23
112 61 149 84 36 23 136 76 221 119 110 54 181 97 245 148 60 48 130 91 211
130 144 70 156 80 125 113 -51 54 -197 59 -366 13 -89 -25 -153 -40 -390 -92
-66 -15 -151 -35 -190 -46 -282 -76 -372 -103 -460 -139 -92 -38 -231 -86
-445 -155 -47 -15 -150 -60 -230 -100 -80 -40 -192 -89 -250 -109 -116 -41
-188 -78 -407 -210 -81 -49 -174 -105 -205 -123 -120 -71 -170 -147 -224 -335
-19 -68 -44 -145 -55 -173 -19 -45 -89 -153 -122 -187 -22 -23 -47 -67 -112
-196 l-64 -127 -173 -170 c-133 -130 -193 -182 -260 -222 -47 -29 -92 -58
-100 -65 -51 -48 -151 -114 -259 -169 -69 -36 -150 -83 -180 -105 -77 -57
-129 -84 -259 -139 -63 -27 -122 -54 -131 -62 -8 -7 -19 -13 -23 -13 -4 0 -48
-27 -97 -61 -117 -79 -158 -98 -309 -149 -69 -23 -179 -70 -245 -105 -138 -71
-213 -96 -380 -124 -237 -41 -311 -60 -387 -97 -117 -59 -213 -79 -458 -94
-91 -6 -226 -15 -300 -20 -190 -14 -396 -12 -604 5 -210 17 -231 20 -315 47
-117 38 -165 112 -151 236 10 79 35 121 90 150 37 20 56 23 110 20 36 -2 79
-11 95 -19 212 -111 260 -126 480 -159 152 -23 382 -44 475 -45 216 0 446 45
516 102 121 100 159 116 434 183 146 36 201 60 313 134 90 60 117 74 257 139
112 52 189 100 273 170 34 29 84 70 111 91 88 71 132 126 198 244 78 143 92
179 123 324 14 62 31 142 39 178 8 36 19 139 25 230 21 316 51 586 73 660 17
59 61 142 93 176 38 40 115 89 232 147 50 25 124 65 165 89 81 49 309 154 406
187 112 38 213 24 334 -46 152 -88 177 -98 263 -98 89 1 145 20 265 93 136 82
293 163 417 213 70 29 186 82 257 117 143 70 184 88 331 139 124 43 198 74
300 125 115 57 155 72 311 113 189 50 232 64 356 123 131 62 205 85 368 112
186 32 202 36 358 101 173 73 275 97 652 155 231 35 463 86 631 139 98 31 219
52 339 60 52 3 163 12 245 20 83 8 238 19 345 25 107 5 269 15 360 21 91 6
228 14 305 18 149 8 759 5 1040 -4z m-9287 -2461 c4 -6 15 -13 24 -17 9 -3 29
-30 44 -59 35 -68 44 -187 21 -286 -8 -37 -18 -96 -22 -132 -9 -85 -42 -211
-104 -394 -72 -211 -86 -231 -226 -336 -49 -37 -117 -91 -149 -119 -69 -58
-174 -116 -308 -167 -51 -20 -160 -71 -243 -114 -82 -43 -175 -85 -205 -93
-105 -30 -310 -41 -516 -28 -258 16 -387 46 -448 102 -11 11 -23 19 -27 19 -4
0 -22 29 -40 65 -29 59 -31 70 -25 127 13 112 48 161 145 206 48 22 69 26 146
25 54 -1 122 -9 170 -21 133 -34 239 -45 374 -39 230 10 331 58 568 275 158
143 194 222 174 371 -17 129 -14 238 8 288 54 117 270 284 427 328 56 16 201
15 212 -1z"/>
<path d="M16606 37843 c-36 -10 -75 -39 -158 -118 -46 -43 -107 -101 -137
-129 -30 -28 -76 -80 -103 -116 -27 -36 -84 -101 -126 -145 -143 -149 -214
-256 -338 -510 -67 -136 -75 -160 -76 -213 -1 -70 21 -115 64 -133 40 -17 89
0 180 60 40 26 106 69 147 95 70 45 135 105 244 224 26 29 107 102 180 162
127 106 191 145 372 225 67 30 135 85 157 129 33 64 30 156 -7 225 -34 62
-153 176 -226 215 -49 27 -132 41 -173 29z"/>
<path d="M27233 30556 c-51 -16 -90 -43 -171 -118 -34 -32 -67 -58 -73 -58 -5
0 -47 -18 -92 -40 -56 -27 -106 -62 -153 -105 -51 -48 -98 -80 -179 -120 -63
-31 -147 -84 -196 -123 -60 -48 -110 -77 -170 -101 -111 -44 -127 -52 -241
-127 -54 -37 -145 -84 -208 -109 -117 -48 -149 -66 -245 -141 -33 -26 -105
-68 -160 -94 -55 -26 -143 -75 -195 -109 -107 -71 -187 -113 -309 -161 -47
-19 -131 -62 -188 -97 -57 -34 -154 -86 -216 -115 -62 -29 -182 -88 -267 -132
-241 -124 -266 -135 -408 -187 -74 -26 -193 -78 -265 -114 -94 -47 -175 -78
-282 -109 -161 -46 -217 -71 -322 -141 -80 -54 -133 -75 -320 -125 -90 -24
-172 -54 -225 -81 -159 -82 -182 -91 -302 -120 -212 -51 -279 -72 -366 -112
-166 -76 -186 -85 -235 -100 -27 -9 -135 -32 -240 -53 -222 -42 -308 -66 -464
-128 -154 -62 -220 -79 -476 -121 -199 -34 -236 -43 -390 -100 -93 -35 -197
-70 -230 -78 -68 -17 -239 -42 -400 -57 -149 -15 -282 -42 -421 -85 -64 -20
-156 -45 -205 -56 -150 -32 -491 -81 -738 -104 -164 -16 -406 -46 -511 -65
-156 -27 -706 -101 -850 -114 -91 -9 -338 -26 -550 -38 -357 -21 -467 -22
-1525 -22 -1192 0 -1423 7 -1700 49 -131 20 -234 19 -285 -1 -82 -33 -92 -129
-23 -221 21 -27 287 -234 413 -320 25 -17 84 -67 132 -111 49 -44 121 -102
160 -128 40 -26 105 -73 143 -104 39 -32 117 -92 175 -134 58 -41 131 -96 162
-120 117 -90 249 -117 491 -98 490 38 937 85 1162 122 108 18 245 33 415 45
119 9 462 42 670 65 220 25 357 51 529 100 197 56 199 57 521 95 408 49 496
66 691 130 199 66 298 89 474 110 266 32 386 64 622 163 70 30 233 74 323 87
105 16 248 59 411 124 111 45 234 85 339 111 255 64 296 77 428 141 134 65
232 100 345 123 157 33 250 67 372 135 110 60 133 70 265 102 191 48 262 76
383 152 59 38 90 51 238 100 117 39 160 59 297 140 57 34 132 68 195 88 136
43 205 74 310 142 109 71 137 85 267 136 58 22 157 71 220 109 63 38 169 93
235 122 66 29 167 80 225 113 58 33 156 84 218 113 62 29 134 68 160 85 115
79 163 108 244 151 48 26 134 75 190 111 57 35 144 86 193 112 50 27 142 83
205 125 63 43 142 90 175 105 83 40 151 84 209 136 64 58 116 93 206 139 46
23 107 67 155 111 81 73 123 103 250 177 39 22 107 72 153 110 46 38 124 92
175 118 62 34 118 74 177 129 47 44 99 87 116 95 74 38 136 84 188 141 31 34
56 66 56 70 0 4 39 34 87 65 103 68 141 106 149 151 11 61 -31 77 -123 49z"/>
<path d="M24810 21392 l0 -119 168 -6 c512 -19 790 -118 917 -327 43 -70 89
-207 112 -330 16 -88 18 -243 21 -2230 2 -1417 -1 -2174 -7 -2250 -39 -432
-217 -615 -671 -690 -136 -23 -345 -40 -482 -40 l-98 0 0 -115 0 -115 3997 2
3996 3 267 935 c146 514 273 961 282 993 l17 57 -193 0 -192 0 -90 -137 c-136
-209 -243 -343 -414 -513 -581 -582 -1303 -849 -2540 -940 -241 -18 -836 -24
-1010 -11 -433 34 -553 100 -623 348 l-22 78 -3 1143 -3 1142 158 0 c521 0
999 -87 1288 -233 304 -153 506 -400 629 -769 37 -112 81 -299 92 -390 l7 -58
163 0 164 0 0 1580 0 1580 -163 0 -163 0 -18 -77 c-31 -139 -108 -352 -172
-482 -207 -420 -527 -656 -1034 -765 -236 -51 -590 -77 -832 -61 l-118 7 0
1043 c0 1171 -1 1159 68 1295 30 60 47 81 85 107 120 80 377 113 887 113 984
0 1748 -119 2216 -345 229 -111 442 -281 580 -464 123 -164 236 -425 279 -643
l18 -88 158 0 159 0 0 945 0 945 -3940 0 -3940 0 0 -118z"/>
<path d="M210 21376 l0 -113 91 -7 c388 -29 590 -154 802 -496 25 -41 692
-1349 1481 -2905 l1434 -2830 204 -2 203 -3 1285 2215 c707 1218 1288 2215
1291 2215 3 0 522 -997 1154 -2215 l1149 -2215 185 2 186 3 1341 2745 c737
1510 1369 2792 1403 2850 119 199 268 374 391 457 115 78 279 141 435 166 l80
13 3 117 3 117 -1241 0 -1240 0 0 -113 0 -113 168 -12 c373 -26 566 -83 672
-198 68 -74 85 -121 85 -244 -1 -97 -4 -114 -42 -225 -22 -66 -65 -174 -95
-240 -117 -259 -1382 -2864 -1389 -2860 -4 3 -343 672 -755 1487 -411 816
-778 1542 -815 1614 -127 248 -128 378 -6 491 117 108 319 157 730 178 l127 7
0 114 0 114 -2155 0 -2155 0 0 -115 0 -114 33 -5 c17 -3 84 -8 147 -11 260
-13 502 -64 635 -133 87 -46 214 -168 280 -270 39 -61 220 -426 351 -709 l33
-71 -795 -1374 c-437 -755 -798 -1376 -803 -1381 -9 -9 -1559 3052 -1613 3187
-61 150 -82 246 -82 366 -1 94 2 110 26 156 49 94 144 157 285 190 95 22 252
42 391 50 l122 7 0 113 0 114 -2010 0 -2010 0 0 -114z"/>
<path d="M35005 17467 c-1240 -2081 -1129 -1901 -1230 -2003 -63 -64 -107 -99
-147 -117 -67 -32 -166 -57 -225 -57 l-43 0 0 -60 0 -60 675 0 675 0 0 58 0
59 -127 6 c-148 7 -217 20 -291 54 -99 46 -125 127 -82 250 11 32 75 149 141
260 l122 203 741 0 741 0 117 -203 c149 -257 180 -319 185 -371 12 -115 -120
-175 -416 -192 l-121 -7 0 -59 0 -58 1060 0 1060 0 0 59 0 58 -60 6 c-168 18
-267 90 -424 311 -33 47 -425 671 -871 1386 l-810 1299 -90 0 -90 1 -490 -823z
m518 -683 c175 -287 317 -525 317 -528 0 -3 -283 -6 -630 -6 -346 0 -630 2
-630 5 0 8 622 1056 625 1053 1 -2 144 -238 318 -524z"/>
<path d="M40050 18284 c-513 -45 -837 -127 -1182 -300 -602 -302 -928 -822
-878 -1401 38 -441 249 -779 658 -1053 552 -369 1375 -503 2397 -389 311 34
671 103 960 182 l120 34 6 394 c3 237 10 406 16 425 28 80 73 133 141 161 53
22 169 43 279 50 l103 6 0 54 0 53 -1115 0 -1115 0 0 -53 0 -53 163 -12 c329
-25 438 -74 483 -217 21 -65 31 -455 15 -573 -25 -186 -115 -270 -344 -319
-129 -28 -496 -25 -634 5 -261 57 -446 155 -604 319 -185 193 -296 440 -346
771 -23 150 -22 515 1 677 51 361 158 608 340 791 196 195 437 288 781 301
404 15 758 -95 1085 -335 163 -121 343 -321 450 -501 l42 -71 84 0 84 0 0 530
0 530 -88 0 c-85 0 -88 -1 -104 -27 -34 -58 -92 -115 -141 -140 -91 -46 -135
-43 -457 31 -307 70 -397 87 -590 111 -120 15 -516 27 -610 19z"/>
<path d="M12880 18166 l0 -53 90 -7 c272 -22 407 -87 462 -225 l23 -56 0
-1120 0 -1120 -24 -60 c-16 -41 -40 -76 -76 -112 -70 -68 -164 -99 -352 -116
l-133 -11 0 -58 0 -58 1125 0 1125 0 0 59 0 58 -104 7 c-203 14 -345 57 -408
123 -79 83 -88 161 -88 754 l0 479 796 0 795 0 -3 -537 c-3 -467 -6 -544 -20
-586 -51 -151 -151 -203 -435 -229 l-133 -12 0 -58 0 -58 1115 0 1115 0 0 59
0 58 -97 7 c-183 13 -333 62 -389 129 -39 46 -71 122 -83 197 -15 89 -15 2091
0 2179 33 208 143 277 487 307 l82 7 0 53 0 54 -1115 0 -1115 0 0 -54 0 -54
88 -7 c242 -18 358 -51 420 -119 75 -82 76 -87 80 -643 l3 -493 -796 0 -796 0
3 488 c4 423 6 494 21 538 50 151 147 201 438 226 l139 11 0 54 0 53 -1120 0
-1120 0 0 -54z"/>
<path d="M17972 18168 l3 -53 107 -7 c314 -19 436 -72 484 -209 18 -52 19
-103 19 -1179 0 -1090 -1 -1127 -20 -1185 -46 -143 -168 -203 -482 -236 l-113
-12 0 -59 0 -58 1155 0 1155 0 0 58 0 58 -117 13 c-353 36 -467 102 -503 286
-8 44 -10 368 -8 1175 3 1048 4 1117 21 1155 55 122 179 172 475 190 l112 8 0
53 0 54 -1146 0 -1145 0 3 -52z"/>
<path d="M20470 17760 l0 -460 88 0 88 0 13 63 c54 264 244 479 526 596 153
64 337 99 568 108 l158 6 -3 -1234 -3 -1234 -23 -66 c-55 -163 -189 -231 -489
-246 l-123 -6 0 -59 0 -58 1170 0 1170 0 0 60 0 60 -60 0 c-85 0 -243 18 -320
37 -130 31 -201 90 -238 198 -16 46 -17 150 -20 1299 l-2 1249 162 -6 c263
-10 445 -46 621 -122 126 -54 186 -94 283 -190 77 -76 98 -105 138 -185 26
-54 56 -135 69 -187 l22 -93 83 0 82 0 0 465 0 465 -1980 0 -1980 0 0 -460z"/>
<path d="M42830 18166 l0 -53 90 -7 c272 -22 407 -87 462 -225 l23 -56 3
-1080 c3 -1115 2 -1163 -37 -1251 -54 -121 -194 -184 -450 -200 l-101 -7 0
-59 0 -58 1917 2 1916 3 124 500 c67 275 123 506 123 513 0 9 -24 12 -88 12
l-87 0 -25 -47 c-52 -100 -161 -252 -245 -341 -199 -212 -433 -334 -764 -402
-208 -42 -344 -53 -651 -54 -338 -1 -422 10 -485 65 -85 75 -87 97 -83 1349 4
1168 0 1105 69 1199 60 83 202 124 477 138 l132 6 0 54 0 53 -1160 0 -1160 0
0 -54z"/>
<path d="M46990 18167 l0 -54 118 -6 c212 -12 337 -59 399 -150 68 -102 66
-68 70 -1212 4 -1078 2 -1173 -38 -1265 -54 -126 -182 -182 -446 -197 l-123
-6 0 -54 0 -53 1924 0 c1824 0 1925 1 1930 18 3 9 62 215 131 457 69 242 128
448 131 458 5 15 -4 17 -88 17 l-93 0 -29 -48 c-56 -89 -154 -208 -240 -289
-245 -233 -543 -351 -1026 -410 -210 -25 -708 -25 -799 0 -106 29 -140 66
-161 178 -6 30 -10 275 -10 582 l0 530 158 -6 c341 -13 542 -77 683 -217 101
-100 159 -228 205 -457 4 -21 10 -23 79 -23 l75 0 0 765 0 766 -76 -3 -76 -3
-24 -84 c-49 -169 -108 -277 -203 -371 -157 -155 -406 -224 -764 -212 l-58 2
3 533 3 532 25 50 c46 92 143 115 485 115 540 0 944 -79 1160 -227 62 -42 151
-128 186 -179 42 -60 98 -187 115 -259 l18 -75 78 0 78 0 0 455 0 455 -1900 0
-1900 0 0 -53z"/>
<path d="M8947 13988 c-30 -57 -82 -155 -116 -219 l-61 -116 0 -154 c0 -160 9
-226 32 -241 7 -5 77 -7 156 -6 114 2 145 6 152 18 13 20 13 340 0 360 -6 10
-33 17 -89 20 l-80 5 95 213 c52 118 94 216 94 218 0 2 -29 4 -64 4 l-64 0
-55 -102z"/>
<path d="M2160 13110 l0 -530 75 0 75 0 0 378 1 377 37 -70 c21 -38 102 -179
181 -312 102 -174 148 -243 161 -243 13 0 62 75 175 266 86 146 167 288 179
315 l21 48 -3 -379 -3 -380 85 0 86 0 0 530 0 530 -74 0 -74 0 -178 -302 c-97
-167 -183 -311 -189 -320 -10 -15 -40 29 -206 302 l-194 320 -77 0 -78 0 0
-530z"/>
<path d="M4490 13110 l0 -530 425 0 425 0 0 100 0 100 -330 0 -330 0 0 130 0
130 190 0 190 0 0 90 0 90 -190 0 -190 0 0 120 0 120 325 0 325 0 0 90 0 90
-420 0 -420 0 0 -530z"/>
<path d="M6540 13110 l0 -530 85 0 86 0 -3 365 c-2 201 -1 365 2 364 3 0 20
-19 38 -41 18 -23 168 -187 333 -365 l300 -323 64 0 65 0 0 530 0 530 -85 0
-86 0 3 -365 c2 -201 1 -365 -2 -365 -3 0 -14 13 -25 29 -11 16 -161 180 -333
365 l-313 336 -64 0 -65 0 0 -530z"/>
<path d="M10485 13625 c-48 -17 -80 -52 -94 -103 -14 -49 -14 -321 0 -377 13
-52 50 -89 104 -104 24 -7 150 -11 323 -11 l282 0 0 -125 0 -125 -290 0 -290
0 0 65 c0 36 -1 65 -2 65 -2 0 -39 -11 -83 -23 l-80 -23 1 -86 c1 -99 18 -140
74 -173 33 -19 55 -20 345 -23 343 -4 396 2 438 46 42 45 49 89 45 302 -5 304
10 294 -410 298 l-298 3 0 110 0 109 270 0 269 0 3 -58 3 -58 83 25 84 25 -7
65 c-9 89 -36 144 -83 168 -33 16 -69 18 -342 20 -245 2 -313 0 -345 -12z"/>
<path d="M14240 13110 l0 -530 95 0 95 0 0 200 0 200 175 0 175 0 0 95 0 95
-175 0 -175 0 0 140 0 140 320 0 320 0 0 95 0 95 -415 0 -415 0 0 -530z"/>
<path d="M16457 13608 c-8 -18 -111 -254 -231 -524 -119 -270 -216 -494 -216
-497 0 -4 42 -7 93 -7 l92 0 46 113 45 112 265 3 265 2 48 -115 49 -115 107 0
108 0 -165 368 c-90 202 -196 440 -236 530 l-72 162 -92 0 -93 0 -13 -32z
m198 -411 c42 -104 75 -190 72 -193 -2 -2 -83 -3 -179 -2 l-174 3 90 213 c82
195 91 211 102 190 6 -13 46 -108 89 -211z"/>
<path d="M18355 13625 c-48 -17 -80 -52 -94 -103 -14 -49 -14 -321 0 -377 13
-52 50 -89 104 -104 24 -7 150 -11 323 -11 l282 0 0 -125 0 -125 -290 0 -290
0 0 65 c0 36 -1 65 -2 65 -2 0 -39 -11 -83 -23 l-80 -23 1 -86 c1 -99 18 -140
74 -173 33 -19 55 -20 345 -23 343 -4 396 2 438 46 42 45 49 89 45 302 -5 304
10 294 -410 298 l-298 3 0 110 0 109 270 0 269 0 3 -58 3 -58 83 25 84 25 -7
65 c-9 89 -36 144 -83 168 -33 16 -69 18 -342 20 -245 2 -313 0 -345 -12z"/>
<path d="M20380 13110 l0 -530 95 0 95 0 0 230 0 230 300 0 300 0 0 -230 0
-230 100 0 100 0 0 530 0 530 -100 0 -100 0 0 -205 0 -205 -300 0 -300 0 0
205 0 205 -95 0 -95 0 0 -530z"/>
<path d="M22630 13110 l0 -530 95 0 95 0 0 530 0 530 -95 0 -95 0 0 -530z"/>
<path d="M24187 13627 c-21 -7 -49 -22 -61 -34 -46 -45 -51 -90 -51 -488 0
-398 4 -431 51 -478 44 -44 97 -49 489 -45 340 3 362 4 395 23 19 12 44 38 55
60 19 38 20 60 20 445 0 385 -1 407 -20 445 -11 22 -36 48 -55 60 -33 19 -53
20 -410 22 -269 1 -386 -1 -413 -10z m713 -512 l0 -335 -320 0 -320 0 0 335 0
335 320 0 320 0 0 -335z"/>
<path d="M26340 13110 l0 -530 85 0 86 0 -3 365 c-2 201 -1 365 2 364 3 0 20
-19 38 -41 18 -23 168 -187 333 -365 l300 -323 64 0 65 0 0 530 0 530 -85 0
-86 0 3 -365 c2 -201 1 -365 -2 -365 -3 0 -14 13 -25 29 -11 16 -161 180 -333
365 l-313 336 -64 0 -65 0 0 -530z"/>
<path d="M30607 13608 c-8 -18 -111 -254 -231 -524 -119 -270 -216 -494 -216
-497 0 -4 42 -7 93 -7 l92 0 46 113 45 112 265 3 265 2 48 -115 49 -115 107 0
108 0 -165 368 c-90 202 -196 440 -236 530 l-72 162 -92 0 -93 0 -13 -32z
m198 -411 c42 -104 75 -190 72 -193 -2 -2 -83 -3 -179 -2 l-174 3 90 213 c82
195 91 211 102 190 6 -13 46 -108 89 -211z"/>
<path d="M32487 13627 c-49 -15 -83 -49 -98 -95 -16 -51 -24 -640 -10 -760 12
-106 30 -144 81 -169 31 -16 70 -18 365 -18 374 0 387 2 421 73 22 45 43 277
28 292 -13 13 -181 60 -188 52 -3 -3 -6 -54 -6 -114 l0 -108 -255 0 -255 0 0
335 0 335 255 0 255 0 0 -100 c0 -99 0 -100 23 -95 38 9 168 35 174 35 9 0 -7
201 -19 240 -15 50 -53 86 -103 99 -61 15 -617 13 -668 -2z"/>
<path d="M34607 13627 c-49 -15 -83 -49 -98 -95 -16 -51 -24 -640 -10 -760 12
-106 30 -144 81 -169 31 -16 70 -18 365 -18 374 0 387 2 421 73 22 45 43 277
28 292 -13 13 -181 60 -188 52 -3 -3 -6 -54 -6 -114 l0 -108 -255 0 -255 0 0
335 0 335 255 0 255 0 0 -100 c0 -99 0 -100 23 -95 38 9 168 35 174 35 9 0 -7
201 -19 240 -15 50 -53 86 -103 99 -61 15 -617 13 -668 -2z"/>
<path d="M36640 13110 l0 -530 425 0 425 0 0 100 0 100 -330 0 -330 0 0 130 0
130 190 0 190 0 0 90 0 90 -190 0 -190 0 0 120 0 120 325 0 325 0 0 90 0 90
-420 0 -420 0 0 -530z"/>
<path d="M38805 13625 c-48 -17 -80 -52 -94 -103 -14 -49 -14 -321 0 -377 13
-52 50 -89 104 -104 24 -7 150 -11 323 -11 l282 0 0 -125 0 -125 -290 0 -290
0 0 65 c0 36 -1 65 -2 65 -2 0 -39 -11 -83 -23 l-80 -23 1 -86 c1 -99 18 -140
74 -173 33 -19 55 -20 345 -23 343 -4 396 2 438 46 42 45 49 89 45 302 -5 304
10 294 -410 298 l-298 3 0 110 0 109 270 0 269 0 3 -58 3 -58 83 25 84 25 -7
65 c-9 89 -36 144 -83 168 -33 16 -69 18 -342 20 -245 2 -313 0 -345 -12z"/>
<path d="M40945 13625 c-48 -17 -80 -52 -94 -103 -14 -49 -14 -321 0 -377 13
-52 50 -89 104 -104 24 -7 150 -11 323 -11 l282 0 0 -125 0 -125 -290 0 -290
0 0 65 c0 36 -1 65 -2 65 -2 0 -39 -11 -83 -23 l-80 -23 1 -86 c1 -99 18 -140
74 -173 33 -19 55 -20 345 -23 343 -4 396 2 438 46 42 45 49 89 45 302 -5 304
10 294 -410 298 l-298 3 0 110 0 109 270 0 269 0 3 -58 3 -58 83 25 84 25 -7
65 c-9 89 -36 144 -83 168 -33 16 -69 18 -342 20 -245 2 -313 0 -345 -12z"/>
<path d="M43077 13627 c-21 -7 -49 -22 -61 -34 -46 -45 -51 -90 -51 -488 0
-398 4 -431 51 -478 44 -44 97 -49 489 -45 340 3 362 4 395 23 19 12 44 38 55
60 19 38 20 60 20 445 0 385 -1 407 -20 445 -11 22 -36 48 -55 60 -33 19 -53
20 -410 22 -269 1 -386 -1 -413 -10z m713 -512 l0 -335 -320 0 -320 0 0 335 0
335 320 0 320 0 0 -335z"/>
<path d="M45230 13110 l0 -530 95 0 95 0 0 200 0 200 93 0 92 0 165 -200 165
-200 132 0 c73 0 133 3 133 8 -1 4 -84 93 -185 197 l-183 190 94 6 c101 6 127
17 168 73 19 25 21 44 24 242 3 200 2 218 -17 257 -40 83 -33 82 -478 85
l-393 3 0 -531z m691 329 c19 -19 20 -30 17 -136 -3 -100 -6 -116 -22 -129
-16 -11 -68 -14 -258 -14 l-238 0 0 150 0 150 240 0 c230 0 241 -1 261 -21z"/>
<path d="M47360 13110 l0 -530 95 0 95 0 0 530 0 530 -95 0 -95 0 0 -530z"/>
<path d="M48820 13110 l0 -530 425 0 425 0 0 100 0 100 -330 0 -330 0 0 130 0
130 190 0 190 0 0 90 0 90 -190 0 -190 0 0 120 0 120 325 0 325 0 0 90 0 90
-420 0 -420 0 0 -530z"/>
<path d="M50985 13625 c-48 -17 -80 -52 -94 -103 -14 -49 -14 -321 0 -377 13
-52 50 -89 104 -104 24 -7 150 -11 323 -11 l282 0 0 -125 0 -125 -290 0 -290
0 0 65 c0 36 -1 65 -2 65 -2 0 -39 -11 -83 -23 l-80 -23 1 -86 c1 -99 18 -140
74 -173 33 -19 55 -20 345 -23 343 -4 396 2 438 46 42 45 49 89 45 302 -5 304
10 294 -410 298 l-298 3 0 110 0 109 270 0 269 0 3 -58 3 -58 83 25 84 25 -7
65 c-9 89 -36 144 -83 168 -33 16 -69 18 -342 20 -245 2 -313 0 -345 -12z"/>
</g>
</svg>
